<svg width="1400" height="582" viewBox="0 0 1400 582" fill="none" xmlns="http://www.w3.org/2000/svg">
<g clip-path="url(#clip0_118_1214)">
<path d="M235.435 582C208.611 582 178.774 571.204 148.585 549.968C80.6215 501.92 8.58963 398.677 0.60283 276.124C-6.4798 172.122 52.2407 143.029 77.8588 135.376C119.249 122.958 168.376 135.528 211.022 163.809C223.58 90.3689 267.734 63.76 295.863 54.1301L298.525 53.2685C334.24 42.5236 370.055 47.1358 402.153 66.4969C441.082 90.0141 471.573 135.427 481.719 185.046C491.113 230.965 485.989 275.719 479.459 321.283C475.591 348.146 466.55 411.044 412.802 431.267C410.19 432.23 407.477 433.142 404.715 433.852C395.321 436.335 386.832 437.349 378.946 437.197C372.717 450.729 362.169 463.147 345.391 472.98C338.007 477.288 330.071 480.43 321.833 482.457C322.787 491.783 322.536 501.008 321.18 510.181C318.869 525.538 311.234 547.484 287.876 565.122L287.173 565.629C272.053 576.628 254.523 582.051 235.485 582.051L235.435 582ZM112.368 231.726C110.107 231.726 108.148 231.979 106.491 232.486C105.988 232.638 105.687 232.79 105.637 232.841C104.23 234.108 99.1067 244.143 100.815 269.333C106.34 354.126 157.978 432.838 206.1 466.898C208.159 468.317 210.068 469.634 211.926 470.8C210.57 468.823 209.063 466.695 207.355 464.414C202.885 458.535 196.706 452.909 189.573 446.32C183.395 440.643 176.363 434.207 169.431 426.604C142.959 397.664 145.922 359.6 162.248 338.516C172.394 325.389 189.423 315.81 209.314 316.519C209.063 315.759 208.762 314.999 208.561 314.238C190.98 261.122 136.73 231.776 112.468 231.776L112.368 231.726ZM270.697 354.126C272.254 356.255 273.661 358.333 274.967 360.208L276.725 362.743C277.78 364.212 278.784 365.632 279.789 366.949C278.483 362.439 277.127 357.826 275.921 353.163C274.163 353.569 272.455 353.873 270.697 354.126ZM221.32 308.106C221.42 308.41 221.47 308.714 221.571 309.069C221.571 309.069 221.47 308.714 221.32 308.106ZM325.449 233.956C341.825 233.956 357.899 241.051 368.95 253.266C375.58 260.564 380.352 268.674 383.919 277.189C386.882 251.188 387.787 227.316 383.316 205.471C378.896 183.829 365.434 162.441 350.565 153.47C342.93 148.858 335.747 147.895 327.408 150.328C308.17 157.677 305.658 198.274 309.777 236.186C313.946 234.969 318.266 234.26 322.687 234.057C323.591 234.057 324.545 234.006 325.449 234.006V233.956Z" fill="#53C0A6"/>
<path d="M679.68 581.341C678.224 581.341 676.717 581.341 675.21 581.24C629.901 579.162 599.712 548.802 580.172 514.54C554.152 543.785 519.844 568.113 478.453 566.187C442.287 564.514 409.988 543.43 382.461 503.39C349.76 455.747 357.747 416.569 365.433 397.461L365.885 396.346C378.292 367.406 403.307 347.031 432.04 332.637C410.189 306.383 393.462 273.59 391.754 237.554V236.946C390.699 208.056 399.339 153.926 469.11 116.319C490.71 104.408 512.812 98.6811 534.16 99.6948C562.089 100.962 599.059 113.836 628.947 163.1C657.93 110.997 692.791 85.4527 733.177 87.3787C757.037 88.4937 779.742 99.34 800.588 119.613C836.051 154.332 839.919 191.027 836.905 215.659C832.937 248.907 814.251 279.267 790.843 305.217C790.843 305.217 790.943 305.217 790.993 305.318C807.067 313.022 842.029 337.756 836.352 405.469L836.252 406.432C829.069 476.477 778.586 559.801 706.605 577.996L704.344 578.503C697.864 579.821 689.375 581.291 679.68 581.291V581.341ZM648.939 414.288C654.615 442.671 670.438 476.629 679.982 480.025C679.982 480.025 680.836 479.923 683.197 479.467C706.002 472.777 732.524 431.571 736.291 396.549C736.392 395.231 736.442 394.015 736.492 392.9C734.081 392.393 731.67 392.038 729.309 391.937C712.08 391.176 697.462 397.309 693.394 399.235L689.375 400.958C674.657 406.533 658.985 405.723 645.573 399.742C646.025 401.06 646.478 402.428 646.879 403.797L649.09 411.652L648.989 414.187L648.939 414.288ZM459.365 435.068C460.018 437.146 461.626 440.745 464.991 445.661C475.038 460.258 481.718 464.11 483.376 464.87C492.167 463.046 514.62 440.035 533.407 405.723C532.955 405.824 532.452 405.925 531.95 406.027L530.795 406.28C488.249 414.795 465.594 428.378 459.365 435.068V435.068ZM589.666 462.488C589.666 462.488 589.867 462.488 589.967 462.488L591.424 419.762H591.323L589.264 462.437C589.364 462.437 589.515 462.437 589.616 462.437L589.666 462.488ZM550.284 431.368H550.134C550.284 431.926 550.435 432.433 550.586 432.889C550.485 432.382 550.385 431.875 550.284 431.368ZM591.474 417.329H591.524L591.725 411.855L591.474 417.329V417.329ZM590.972 361.121C591.876 361.121 592.73 361.121 593.634 361.172H594.789C601.772 361.526 608.452 363.199 614.581 365.936C612.32 359.398 611.265 352.657 611.316 345.967C590.771 340.239 574.697 323.362 570.276 301.314C570.226 300.959 570.025 299.996 569.774 298.425C560.079 235.932 536.873 201.366 529.539 201.062C529.187 201.062 525.169 201.011 516.83 205.573C492.267 218.801 491.915 228.583 492.066 232.993C493.372 256.814 524.164 287.376 543.604 295.587L546.165 296.651L548.576 298.02C569.724 309.93 581.227 332.941 578.062 356.306C577.811 358.536 577.46 360.715 576.957 362.844C581.428 361.729 586.15 361.121 590.871 361.121H590.972ZM730.213 192.091C720.87 202.43 708.363 226.201 697.513 255.294C720.217 235.476 735.638 216.115 737.145 203.546C737.296 202.38 737.648 199.389 730.716 192.598C730.565 192.446 730.364 192.294 730.213 192.142V192.091Z" fill="#53C0A6"/>
<path d="M899.795 517.936C853.079 517.936 813.246 500.45 785.166 466.999C740.862 414.541 726.848 326.757 744.73 213.327C767.033 73.2378 875.131 0 970.319 0C1011.01 0 1050.54 12.5189 1084.6 36.1881C1138.29 72.4776 1164.92 127.773 1157.63 187.986V188.188C1149.24 255.141 1100.02 315.455 1035.12 338.313C1025.42 341.861 1016.18 344.902 1007.39 347.386C1025.07 377.694 1037.43 413.528 1027.43 447.08C1020.35 471.763 999.303 503.086 939.477 513.983C925.814 516.618 912.553 517.936 899.795 517.936ZM970.37 101.367C917.677 101.367 857.349 145.31 843.987 229.293C831.43 308.917 838.11 373.285 861.82 401.364C873.574 415.352 893.415 419.711 920.892 414.389L921.545 414.288C924.107 413.832 926.267 413.325 928.125 412.869C921.495 397.258 902.859 370.447 882.364 350.731L881.51 349.869C860.715 328.886 859.007 295.84 876.537 273.286C870.911 261.274 865.537 239.328 870.61 199.187C872.82 181.751 876.437 163.505 887.488 148.402C901.101 129.801 921.695 120.931 942.592 124.631C963.538 128.331 979.964 143.789 986.544 165.989C988.553 172.73 989.709 180.231 989.96 188.29C990.412 200.504 991.266 224.883 985.992 248.147C990.663 246.677 995.737 244.954 1001.26 242.927L1001.86 242.724C1030.3 232.79 1054.41 203.9 1057.97 175.619C1060.59 153.47 1050.99 135.376 1028.54 120.272L1027.83 119.765C1010.61 107.703 990.713 101.367 970.42 101.367H970.37ZM908.736 350.528C908.736 350.528 909.188 350.68 909.389 350.781L908.736 350.528Z" fill="#53C0A6"/>
<path d="M1166.93 569.076C1121.87 569.076 1078.37 557.064 1044.36 534.003C1002.02 505.316 977.051 462.488 972.128 410.132C963.538 318.648 1028.09 238.568 1075.2 180.13C1079.77 174.453 1084.24 168.929 1088.51 163.556C1123.17 119.816 1177.73 93.1565 1234.49 92.2949C1285.37 91.3826 1331.08 111.656 1362.68 149.061C1409.59 204.66 1412.61 285.349 1369.81 340.898C1358.51 355.546 1345.15 367.152 1330.33 375.515C1354.49 418.748 1351.12 470.243 1321.64 507.292C1303.3 530.303 1276.38 547.383 1241.62 557.976C1217.11 565.426 1191.79 569.076 1166.93 569.076V569.076ZM1072.09 399.944V400.603C1074.2 422.296 1083.44 438.413 1100.37 449.868C1127.9 468.519 1173 472.98 1212.54 460.917C1227.3 456.406 1237.95 450.476 1243.28 443.786C1247.7 438.261 1245.64 430.051 1242.52 424.729C1234.08 410.284 1207.11 400.755 1189.13 405.874C1186.01 406.736 1182.15 408.257 1177.98 409.828C1169.44 413.072 1158.84 417.076 1146.53 419.255C1106.15 426.452 1083.94 413.325 1072.09 399.894V399.944ZM1250.51 286.21C1267.64 293.407 1281.1 290.873 1290.49 278.659C1302.25 263.403 1304.56 236.54 1286.17 214.797C1271.11 196.906 1250.56 193.409 1236.04 193.662C1234.94 193.662 1233.88 193.713 1232.78 193.763C1241.42 198.224 1248.8 204.965 1254.08 213.53C1270.9 240.849 1258.4 270.093 1250.51 286.21Z" fill="#53C0A6"/>
<path d="M395.171 383.726C394.166 384.081 393.111 384.435 392.056 384.739C334.792 399.843 354.483 312.465 331.829 287.478C328.966 284.335 323.289 283.474 320.728 286.869C312.841 297.462 320.828 321.537 322.888 333.042C327.861 360.563 353.278 409.777 320.225 429.037C308.471 435.879 293.552 435.626 280.794 430.862C261.455 423.614 247.289 408.561 235.686 392.089C230.261 384.334 224.334 374.653 215.794 369.99C196.656 359.499 196.556 381.648 206.25 392.241C219.562 406.787 234.932 417.532 247.088 433.548C261.806 452.858 275.218 477.288 271.4 502.579C270.044 511.651 265.523 518.595 257.687 524.525C239.805 537.551 209.716 531.316 177.216 508.458C121.058 468.773 57.515 378.303 50.6835 272.881C47.3683 223.971 61.9856 193.054 92.1245 184.032C143.16 168.726 230.462 219.916 256.231 298.78C257.336 302.531 260.601 305.115 265.272 303.696C265.272 303.696 271.903 302.226 269.693 294.725C269.291 293.306 224.233 132.082 311.837 102.229C311.837 102.229 312.289 102.077 312.741 101.975C373.772 83.628 421.241 140.698 432.392 195.385C440.379 234.361 435.255 274.756 429.629 314.137C426.314 337.147 420.085 374.552 395.12 383.878L395.171 383.726Z" fill="white"/>
<path d="M786.272 401.262C780.948 452.959 742.973 516.618 694.399 528.884C688.422 530.1 682.946 530.86 677.471 530.607C617.244 527.819 598.407 418.596 598.457 417.633C597.603 414.592 595.242 412.007 592.279 411.855H591.274C588.813 411.703 585.799 413.071 584.644 416.011C584.091 416.974 536.974 518.189 480.665 515.604C460.924 514.692 441.735 500.855 423.652 474.551C408.783 452.909 405.217 433.244 411.898 416.569C431.237 371.511 521.503 356.711 522.507 356.255C525.471 355.9 528.083 353.518 528.234 350.021C528.836 347.031 527.028 343.99 524.115 342.368C491.113 328.379 444.146 283.271 441.836 235.223C440.731 204.711 457.709 180.028 492.67 161.174C506.885 153.318 519.895 149.922 531.75 150.48C600.416 153.622 619.002 289.302 619.404 291.329C621.011 299.388 631.911 299.388 633.72 291.988C644.118 248.502 680.837 135.883 730.717 138.164C742.069 138.67 753.672 144.702 765.527 156.258C782.103 172.476 789.236 190.317 786.875 209.678C778.939 275.719 666.219 339.428 664.662 340.391C661.598 342.266 660.443 346.676 662.251 350.274C664.059 353.873 667.977 355.039 671.494 353.67C673.503 352.758 698.82 339.935 731.42 341.456C744.731 342.064 757.942 345.662 769.093 351.187C782.204 357.269 788.282 375.515 786.122 401.414L786.272 401.262Z" fill="white"/>
<path d="M1107.75 181.853C1101.83 229.242 1065.26 274.148 1018.29 290.569C989.609 301.061 965.9 306.535 947.114 306.535C939.679 306.535 934.757 305.521 931.291 304.558C927.825 303.544 926.368 303.037 926.368 303.037C922.4 301.517 918.934 301.061 916.472 304.051C914.011 306.535 914.011 311.045 916.975 314.036C938.223 334.512 990.614 395.839 979.262 432.737C974.791 448.702 958.014 459.194 930.336 464.161C891.759 471.662 850.72 466.644 823.544 434.257C789.437 393.862 779.039 318.547 794.36 221.285C812.142 109.578 896.179 50.6836 970.371 50.6836C1001.01 50.6836 1030.7 60.1614 1056.37 78.1034C1094.94 104.053 1112.73 140.951 1107.8 181.853H1107.75ZM938.273 180.535C936.364 174.048 932.597 171.969 927.775 178.558C923.254 184.742 921.445 196.804 920.34 205.674C919.235 214.392 915.719 253.874 925.715 254.787C939.88 256.104 940.081 203.545 939.629 190.114C939.478 186.414 939.026 183.171 938.273 180.586V180.535Z" fill="white"/>
<path d="M1201.28 311.299C1206.66 319.256 1215.3 325.439 1224.04 329.798C1321.54 378.1 1389.1 258.638 1324.4 181.954C1272.81 120.83 1174.26 136.491 1127.75 195.233C1083.09 251.644 1014.73 326.96 1022.11 405.368C1031.7 507.14 1143.67 534.864 1227.05 509.421C1248.05 503.035 1268.7 492.746 1282.46 475.514C1300.09 453.314 1299.84 423.107 1285.82 399.083C1265.18 363.655 1213.99 346.169 1175.47 357.167C1162.76 360.817 1150.75 367.101 1137.74 369.433C1073.6 380.887 1126.24 316.468 1142.21 298.476C1154.37 284.842 1186.67 238.517 1207.26 238.365C1219.87 238.314 1204.3 265.481 1202.44 269.941C1198.72 278.861 1194.91 288.339 1196.11 297.969C1196.71 302.835 1198.57 307.295 1201.23 311.248L1201.28 311.299Z" fill="white"/>
</g>
<defs>
<clipPath id="clip0_118_1214">
<rect width="1400" height="582" fill="white"/>
</clipPath>
</defs>
</svg>
